<svg width="152" height="97" viewBox="0 0 152 97" fill="none" xmlns="http://www.w3.org/2000/svg">
<g clip-path="url(#clip0_37_126)">
<path d="M33.5935 54.0531H31.3616V86.8512H33.5935V54.0531Z" fill="#1A2C41"/>
<path d="M33.5935 49.7645H31.3616V0L63.9111 22.9815L62.6157 24.7822L33.5935 4.2908V49.7645Z" fill="#EF850D"/>
<path d="M45.6566 84.6389H33.5924V86.8497H45.6566V84.6389Z" fill="#1A2C41"/>
<path d="M64.2598 96.5429H0V60.4335L47.8732 43.2671V86.8494H45.6413V46.4186L2.23186 61.9844V94.332H62.0279V83.5176H64.2598V96.5429Z" fill="#1A2C41"/>
<path d="M63.9108 57.9826H60.926V22.9819H63.9108V57.9826Z" fill="#EF850D"/>
<path d="M75.5833 31.9724L75.6803 36.4197C76.6672 34.8171 77.8967 33.5951 79.3689 32.7537C80.8411 31.9124 82.467 31.4917 84.2466 31.4917C87.0615 31.4917 89.1566 32.2769 90.5317 33.8475C91.9069 35.418 92.6025 37.7738 92.6187 40.9149V57.9826H89.7309V40.8909C89.7147 38.5671 89.2173 36.8363 88.2385 35.6985C87.2597 34.5606 85.6945 33.9917 83.5428 33.9917C81.7471 33.9917 80.1576 34.5486 78.7744 35.6624C77.3912 36.7762 76.3679 38.2787 75.7046 40.1697V57.9826H72.8168V31.9724H75.5833Z" fill="#EF850D"/>
<path d="M102.204 57.9826V34.3283H97.8604V31.9725H102.204V28.8233C102.204 26.163 102.888 24.1197 104.255 22.6934C105.622 21.2671 107.527 20.554 109.97 20.554C111.07 20.554 112.097 20.6892 113.051 20.9586L112.833 23.3425C112.024 23.1502 111.142 23.054 110.188 23.054C108.586 23.054 107.341 23.5488 106.451 24.5364C105.561 25.525 105.116 26.9273 105.116 28.7422V31.9725H111.377V34.3283H105.116V57.9826H102.204Z" fill="#EF850D"/>
<path d="M128.704 34.4244C128.089 34.3122 127.434 34.2561 126.738 34.2561C124.926 34.2561 123.393 34.757 122.139 35.7586C120.886 36.7602 119.992 38.2146 119.458 40.1216V57.9826H116.57V31.9724H119.409L119.458 36.1071C120.995 33.0302 123.462 31.4917 126.859 31.4917C127.668 31.4917 128.307 31.5958 128.777 31.8042L128.704 34.4244Z" fill="#EF850D"/>
<path d="M148.894 57.9826C148.603 57.1653 148.417 55.9553 148.336 54.3527C147.316 55.6668 146.018 56.6805 144.441 57.3936C142.863 58.1068 141.193 58.4634 139.43 58.4634C136.906 58.4634 134.863 57.7662 133.302 56.372C131.741 54.9777 130.961 53.2149 130.961 51.0834C130.961 48.5513 132.024 46.5481 134.152 45.0737C136.279 43.5993 139.244 42.8621 143.045 42.8621H148.311V39.9053C148.311 38.0463 147.733 36.5839 146.576 35.5182C145.42 34.4525 143.733 33.9196 141.517 33.9196C139.494 33.9196 137.82 34.4324 136.493 35.4581C135.167 36.4838 134.504 37.7178 134.504 39.1601L131.591 39.1361C131.591 37.0687 132.562 35.2778 134.504 33.7634C136.445 32.2489 138.831 31.4917 141.662 31.4917C144.59 31.4917 146.9 32.2168 148.59 33.6672C150.281 35.1175 151.151 37.1408 151.199 39.737V52.045C151.199 54.561 151.466 56.4441 152 57.6941V57.9826H148.894ZM139.769 55.9152C141.711 55.9152 143.446 55.4505 144.975 54.521C146.504 53.5915 147.616 52.3495 148.311 50.7949V45.0737H143.118C140.222 45.1057 137.958 45.6306 136.324 46.6482C134.69 47.6659 133.873 49.0641 133.873 50.843C133.873 52.3014 134.419 53.5113 135.511 54.4729C136.603 55.4345 138.022 55.9152 139.769 55.9152Z" fill="#EF850D"/>
<path d="M68.9804 90.4079H83.0009V96.5454H60.926V63.4487H68.9804V90.4079Z" fill="#1A2C41"/>
<path d="M85.0661 84.0205C85.0661 81.5655 85.548 79.3795 86.5118 77.4625C87.4756 75.5455 88.86 74.0718 90.6652 73.0413C92.4703 72.0108 94.5891 71.4955 97.0215 71.4955C100.739 71.4955 103.668 72.6359 105.81 74.9166C107.952 77.1973 109.023 80.3001 109.023 84.225V84.4978C109.023 88.3318 107.948 91.374 105.799 93.6244C103.649 95.8748 100.739 97 97.0674 97C93.5335 97 90.6958 95.9506 88.5541 93.8517C86.4124 91.7529 85.2574 88.9077 85.0891 85.3162L85.0661 84.0205ZM92.7992 84.4978C92.7992 86.7709 93.1587 88.4379 93.8777 89.4987C94.5967 90.5595 95.66 91.0899 97.0674 91.0899C99.821 91.0899 101.228 88.991 101.29 84.7933V84.0205C101.29 79.6106 99.8669 77.4057 97.0215 77.4057C94.4361 77.4057 93.0364 79.3075 92.8222 83.1112L92.7992 84.4978Z" fill="#1A2C41"/>
<path d="M122.929 91.0899C124.015 91.0899 124.856 90.7982 125.453 90.2147C126.049 89.6313 126.34 88.8168 126.325 87.7711H133.576C133.576 90.4686 132.601 92.6811 130.65 94.4087C128.7 96.1362 126.187 97 123.112 97C119.502 97 116.656 95.8786 114.576 93.6358C112.495 91.393 111.455 88.2864 111.455 84.316V83.9977C111.455 81.5125 111.918 79.3189 112.843 77.417C113.769 75.5152 115.104 74.0528 116.848 73.0299C118.592 72.007 120.657 71.4955 123.043 71.4955C126.271 71.4955 128.834 72.3821 130.73 74.1551C132.627 75.9281 133.576 78.3301 133.576 81.3609H126.325C126.325 80.088 126.011 79.1105 125.384 78.4286C124.757 77.7466 123.915 77.4057 122.86 77.4057C120.856 77.4057 119.685 78.671 119.349 81.2018C119.242 82.005 119.188 83.1112 119.188 84.5206C119.188 86.9907 119.486 88.7031 120.083 89.6578C120.68 90.6125 121.628 91.0899 122.929 91.0899Z" fill="#1A2C41"/>
</g>
<defs>
<clipPath id="clip0_37_126">
<rect width="152" height="97" fill="white"/>
</clipPath>
</defs>
</svg>
